<mxfile host="app.diagrams.net" modified="2023-08-02T03:32:17.959Z" agent="Mozilla/5.0 (Windows NT 10.0; Win64; x64) AppleWebKit/537.36 (KHTML, like Gecko) Chrome/115.0.0.0 Safari/537.36" etag="pbyQnyaAvK6O7zqykNOS" version="21.6.6" type="github">
  <diagram name="Página-1" id="7GLiXIW4Ltg8AP4gAgrD">
    <mxGraphModel dx="1195" dy="632" grid="1" gridSize="10" guides="1" tooltips="1" connect="1" arrows="1" fold="1" page="1" pageScale="1" pageWidth="827" pageHeight="1169" math="0" shadow="0">
      <root>
        <mxCell id="0" />
        <mxCell id="1" parent="0" />
        <mxCell id="m86xBmsgHBHrFJQc2TL2-10" value="" style="ellipse;whiteSpace=wrap;html=1;" vertex="1" parent="1">
          <mxGeometry x="381" y="495" width="92" height="50" as="geometry" />
        </mxCell>
        <mxCell id="m86xBmsgHBHrFJQc2TL2-5" value="" style="rhombus;whiteSpace=wrap;html=1;" vertex="1" parent="1">
          <mxGeometry x="373" y="255" width="95" height="50" as="geometry" />
        </mxCell>
        <mxCell id="m86xBmsgHBHrFJQc2TL2-3" value="" style="rounded=0;whiteSpace=wrap;html=1;" vertex="1" parent="1">
          <mxGeometry x="355" y="357.5" width="130" height="75" as="geometry" />
        </mxCell>
        <mxCell id="72b45UVYJSwFHWQsGIXk-2" value="Paciente" style="rounded=0;whiteSpace=wrap;html=1;" parent="1" vertex="1">
          <mxGeometry x="360" y="110" width="120" height="60" as="geometry" />
        </mxCell>
        <mxCell id="72b45UVYJSwFHWQsGIXk-3" value="&lt;u&gt;id&lt;/u&gt;" style="ellipse;whiteSpace=wrap;html=1;" parent="1" vertex="1">
          <mxGeometry x="250" y="80" width="50" height="30" as="geometry" />
        </mxCell>
        <mxCell id="72b45UVYJSwFHWQsGIXk-4" value="nome" style="ellipse;whiteSpace=wrap;html=1;" parent="1" vertex="1">
          <mxGeometry x="290" y="40" width="50" height="30" as="geometry" />
        </mxCell>
        <mxCell id="72b45UVYJSwFHWQsGIXk-5" value="dt_nascimento" style="ellipse;whiteSpace=wrap;html=1;" parent="1" vertex="1">
          <mxGeometry x="356" y="20" width="115" height="30" as="geometry" />
        </mxCell>
        <mxCell id="72b45UVYJSwFHWQsGIXk-7" value="cpf" style="ellipse;whiteSpace=wrap;html=1;" parent="1" vertex="1">
          <mxGeometry x="490" y="30" width="40" height="30" as="geometry" />
        </mxCell>
        <mxCell id="72b45UVYJSwFHWQsGIXk-8" value="nome_mae" style="ellipse;whiteSpace=wrap;html=1;" parent="1" vertex="1">
          <mxGeometry x="530" y="60" width="80" height="30" as="geometry" />
        </mxCell>
        <mxCell id="72b45UVYJSwFHWQsGIXk-10" value="dt_atualizacao" style="ellipse;whiteSpace=wrap;html=1;" parent="1" vertex="1">
          <mxGeometry x="550" y="110" width="115" height="30" as="geometry" />
        </mxCell>
        <mxCell id="72b45UVYJSwFHWQsGIXk-11" value="" style="endArrow=none;html=1;rounded=0;entryX=0;entryY=0.25;entryDx=0;entryDy=0;" parent="1" source="72b45UVYJSwFHWQsGIXk-3" target="72b45UVYJSwFHWQsGIXk-2" edge="1">
          <mxGeometry width="50" height="50" relative="1" as="geometry">
            <mxPoint x="390" y="420" as="sourcePoint" />
            <mxPoint x="440" y="370" as="targetPoint" />
          </mxGeometry>
        </mxCell>
        <mxCell id="72b45UVYJSwFHWQsGIXk-12" value="" style="endArrow=none;html=1;rounded=0;entryX=0;entryY=0;entryDx=0;entryDy=0;exitX=1;exitY=1;exitDx=0;exitDy=0;" parent="1" source="72b45UVYJSwFHWQsGIXk-4" target="72b45UVYJSwFHWQsGIXk-2" edge="1">
          <mxGeometry width="50" height="50" relative="1" as="geometry">
            <mxPoint x="390" y="420" as="sourcePoint" />
            <mxPoint x="440" y="370" as="targetPoint" />
          </mxGeometry>
        </mxCell>
        <mxCell id="72b45UVYJSwFHWQsGIXk-13" value="" style="endArrow=none;html=1;rounded=0;entryX=0.308;entryY=0;entryDx=0;entryDy=0;entryPerimeter=0;exitX=0.5;exitY=1;exitDx=0;exitDy=0;" parent="1" source="72b45UVYJSwFHWQsGIXk-5" target="72b45UVYJSwFHWQsGIXk-2" edge="1">
          <mxGeometry width="50" height="50" relative="1" as="geometry">
            <mxPoint x="390" y="420" as="sourcePoint" />
            <mxPoint x="440" y="370" as="targetPoint" />
          </mxGeometry>
        </mxCell>
        <mxCell id="72b45UVYJSwFHWQsGIXk-14" value="" style="endArrow=none;html=1;rounded=0;entryX=0.75;entryY=0;entryDx=0;entryDy=0;exitX=0;exitY=1;exitDx=0;exitDy=0;" parent="1" source="72b45UVYJSwFHWQsGIXk-7" target="72b45UVYJSwFHWQsGIXk-2" edge="1">
          <mxGeometry width="50" height="50" relative="1" as="geometry">
            <mxPoint x="390" y="420" as="sourcePoint" />
            <mxPoint x="440" y="370" as="targetPoint" />
          </mxGeometry>
        </mxCell>
        <mxCell id="72b45UVYJSwFHWQsGIXk-15" value="" style="endArrow=none;html=1;rounded=0;entryX=1;entryY=0;entryDx=0;entryDy=0;exitX=0;exitY=1;exitDx=0;exitDy=0;" parent="1" source="72b45UVYJSwFHWQsGIXk-8" target="72b45UVYJSwFHWQsGIXk-2" edge="1">
          <mxGeometry width="50" height="50" relative="1" as="geometry">
            <mxPoint x="390" y="420" as="sourcePoint" />
            <mxPoint x="440" y="370" as="targetPoint" />
          </mxGeometry>
        </mxCell>
        <mxCell id="72b45UVYJSwFHWQsGIXk-16" value="" style="endArrow=none;html=1;rounded=0;entryX=1;entryY=0.5;entryDx=0;entryDy=0;exitX=0;exitY=0.5;exitDx=0;exitDy=0;" parent="1" source="72b45UVYJSwFHWQsGIXk-10" target="72b45UVYJSwFHWQsGIXk-2" edge="1">
          <mxGeometry width="50" height="50" relative="1" as="geometry">
            <mxPoint x="390" y="420" as="sourcePoint" />
            <mxPoint x="440" y="370" as="targetPoint" />
          </mxGeometry>
        </mxCell>
        <mxCell id="72b45UVYJSwFHWQsGIXk-17" value="Procedimento Médico" style="rounded=0;whiteSpace=wrap;html=1;" parent="1" vertex="1">
          <mxGeometry x="90" y="360" width="120" height="60" as="geometry" />
        </mxCell>
        <mxCell id="72b45UVYJSwFHWQsGIXk-18" value="Atendimento Médico" style="rounded=0;whiteSpace=wrap;html=1;" parent="1" vertex="1">
          <mxGeometry x="360" y="365" width="120" height="60" as="geometry" />
        </mxCell>
        <mxCell id="72b45UVYJSwFHWQsGIXk-19" value="&lt;u&gt;codigo&lt;/u&gt;" style="ellipse;whiteSpace=wrap;html=1;" parent="1" vertex="1">
          <mxGeometry x="10" y="300" width="60" height="40" as="geometry" />
        </mxCell>
        <mxCell id="72b45UVYJSwFHWQsGIXk-20" value="descricao" style="ellipse;whiteSpace=wrap;html=1;" parent="1" vertex="1">
          <mxGeometry x="10" y="450" width="80" height="40" as="geometry" />
        </mxCell>
        <mxCell id="72b45UVYJSwFHWQsGIXk-21" value="valor" style="ellipse;whiteSpace=wrap;html=1;" parent="1" vertex="1">
          <mxGeometry x="10" y="380" width="55" height="30" as="geometry" />
        </mxCell>
        <mxCell id="72b45UVYJSwFHWQsGIXk-23" value="" style="endArrow=none;html=1;rounded=0;entryX=0;entryY=0;entryDx=0;entryDy=0;exitX=1;exitY=1;exitDx=0;exitDy=0;" parent="1" source="72b45UVYJSwFHWQsGIXk-19" target="72b45UVYJSwFHWQsGIXk-17" edge="1">
          <mxGeometry width="50" height="50" relative="1" as="geometry">
            <mxPoint x="390" y="420" as="sourcePoint" />
            <mxPoint x="440" y="370" as="targetPoint" />
          </mxGeometry>
        </mxCell>
        <mxCell id="72b45UVYJSwFHWQsGIXk-24" value="" style="endArrow=none;html=1;rounded=0;entryX=0;entryY=0.5;entryDx=0;entryDy=0;exitX=1;exitY=0.5;exitDx=0;exitDy=0;" parent="1" source="72b45UVYJSwFHWQsGIXk-21" target="72b45UVYJSwFHWQsGIXk-17" edge="1">
          <mxGeometry width="50" height="50" relative="1" as="geometry">
            <mxPoint x="390" y="420" as="sourcePoint" />
            <mxPoint x="440" y="370" as="targetPoint" />
          </mxGeometry>
        </mxCell>
        <mxCell id="72b45UVYJSwFHWQsGIXk-25" value="" style="endArrow=none;html=1;rounded=0;entryX=0;entryY=1;entryDx=0;entryDy=0;exitX=1;exitY=0;exitDx=0;exitDy=0;" parent="1" source="72b45UVYJSwFHWQsGIXk-20" target="72b45UVYJSwFHWQsGIXk-17" edge="1">
          <mxGeometry width="50" height="50" relative="1" as="geometry">
            <mxPoint x="390" y="420" as="sourcePoint" />
            <mxPoint x="440" y="370" as="targetPoint" />
          </mxGeometry>
        </mxCell>
        <mxCell id="72b45UVYJSwFHWQsGIXk-26" value="Recebe" style="rhombus;whiteSpace=wrap;html=1;" parent="1" vertex="1">
          <mxGeometry x="380" y="260" width="80" height="40" as="geometry" />
        </mxCell>
        <mxCell id="72b45UVYJSwFHWQsGIXk-27" value="" style="endArrow=none;html=1;rounded=0;exitX=0.5;exitY=1;exitDx=0;exitDy=0;entryX=0.5;entryY=0;entryDx=0;entryDy=0;" parent="1" source="72b45UVYJSwFHWQsGIXk-2" target="m86xBmsgHBHrFJQc2TL2-5" edge="1">
          <mxGeometry width="50" height="50" relative="1" as="geometry">
            <mxPoint x="390" y="420" as="sourcePoint" />
            <mxPoint x="420" y="250" as="targetPoint" />
          </mxGeometry>
        </mxCell>
        <mxCell id="72b45UVYJSwFHWQsGIXk-28" value="" style="endArrow=none;html=1;rounded=0;exitX=0.5;exitY=0;exitDx=0;exitDy=0;shape=link;entryX=0.5;entryY=1;entryDx=0;entryDy=0;" parent="1" source="m86xBmsgHBHrFJQc2TL2-3" target="m86xBmsgHBHrFJQc2TL2-5" edge="1">
          <mxGeometry width="50" height="50" relative="1" as="geometry">
            <mxPoint x="390" y="420" as="sourcePoint" />
            <mxPoint x="420" y="310" as="targetPoint" />
          </mxGeometry>
        </mxCell>
        <mxCell id="72b45UVYJSwFHWQsGIXk-31" value="Realiza" style="rhombus;whiteSpace=wrap;html=1;" parent="1" vertex="1">
          <mxGeometry x="240" y="375" width="80" height="40" as="geometry" />
        </mxCell>
        <mxCell id="72b45UVYJSwFHWQsGIXk-32" value="" style="endArrow=none;html=1;rounded=0;exitX=1;exitY=0.5;exitDx=0;exitDy=0;entryX=0;entryY=0.5;entryDx=0;entryDy=0;" parent="1" source="72b45UVYJSwFHWQsGIXk-31" target="72b45UVYJSwFHWQsGIXk-18" edge="1">
          <mxGeometry width="50" height="50" relative="1" as="geometry">
            <mxPoint x="390" y="420" as="sourcePoint" />
            <mxPoint x="440" y="370" as="targetPoint" />
          </mxGeometry>
        </mxCell>
        <mxCell id="72b45UVYJSwFHWQsGIXk-33" value="" style="endArrow=none;html=1;rounded=0;entryX=0;entryY=0.5;entryDx=0;entryDy=0;" parent="1" target="72b45UVYJSwFHWQsGIXk-31" edge="1">
          <mxGeometry width="50" height="50" relative="1" as="geometry">
            <mxPoint x="210" y="390" as="sourcePoint" />
            <mxPoint x="240" y="390" as="targetPoint" />
          </mxGeometry>
        </mxCell>
        <mxCell id="m86xBmsgHBHrFJQc2TL2-1" value="N" style="text;html=1;align=center;verticalAlign=middle;resizable=0;points=[];autosize=1;strokeColor=none;fillColor=none;" vertex="1" parent="1">
          <mxGeometry x="420" y="327.5" width="30" height="30" as="geometry" />
        </mxCell>
        <mxCell id="m86xBmsgHBHrFJQc2TL2-2" value="1" style="text;html=1;align=center;verticalAlign=middle;resizable=0;points=[];autosize=1;strokeColor=none;fillColor=none;" vertex="1" parent="1">
          <mxGeometry x="430" y="180" width="30" height="30" as="geometry" />
        </mxCell>
        <mxCell id="m86xBmsgHBHrFJQc2TL2-7" value="1" style="text;html=1;align=center;verticalAlign=middle;resizable=0;points=[];autosize=1;strokeColor=none;fillColor=none;" vertex="1" parent="1">
          <mxGeometry x="210" y="360" width="30" height="30" as="geometry" />
        </mxCell>
        <mxCell id="m86xBmsgHBHrFJQc2TL2-8" value="N" style="text;html=1;align=center;verticalAlign=middle;resizable=0;points=[];autosize=1;strokeColor=none;fillColor=none;" vertex="1" parent="1">
          <mxGeometry x="320" y="360" width="30" height="30" as="geometry" />
        </mxCell>
        <mxCell id="m86xBmsgHBHrFJQc2TL2-9" value="diagnostico" style="ellipse;whiteSpace=wrap;html=1;" vertex="1" parent="1">
          <mxGeometry x="386" y="500" width="82" height="40" as="geometry" />
        </mxCell>
        <mxCell id="m86xBmsgHBHrFJQc2TL2-11" value="" style="endArrow=none;html=1;rounded=0;entryX=0.5;entryY=1;entryDx=0;entryDy=0;exitX=0.5;exitY=0;exitDx=0;exitDy=0;" edge="1" parent="1" source="m86xBmsgHBHrFJQc2TL2-10" target="m86xBmsgHBHrFJQc2TL2-3">
          <mxGeometry width="50" height="50" relative="1" as="geometry">
            <mxPoint x="230" y="370" as="sourcePoint" />
            <mxPoint x="280" y="320" as="targetPoint" />
          </mxGeometry>
        </mxCell>
        <mxCell id="m86xBmsgHBHrFJQc2TL2-12" value="n_protocolo" style="ellipse;whiteSpace=wrap;html=1;" vertex="1" parent="1">
          <mxGeometry x="270" y="495" width="80" height="50" as="geometry" />
        </mxCell>
        <mxCell id="m86xBmsgHBHrFJQc2TL2-13" value="tipo" style="ellipse;whiteSpace=wrap;html=1;" vertex="1" parent="1">
          <mxGeometry x="500" y="500" width="50" height="25" as="geometry" />
        </mxCell>
        <mxCell id="m86xBmsgHBHrFJQc2TL2-14" value="" style="endArrow=none;dashed=1;html=1;dashPattern=1 3;strokeWidth=2;rounded=0;entryX=0.975;entryY=0.656;entryDx=0;entryDy=0;entryPerimeter=0;exitX=0.05;exitY=0.696;exitDx=0;exitDy=0;exitPerimeter=0;" edge="1" parent="1" source="m86xBmsgHBHrFJQc2TL2-12" target="m86xBmsgHBHrFJQc2TL2-12">
          <mxGeometry width="50" height="50" relative="1" as="geometry">
            <mxPoint x="230" y="370" as="sourcePoint" />
            <mxPoint x="280" y="310" as="targetPoint" />
            <Array as="points" />
          </mxGeometry>
        </mxCell>
        <mxCell id="m86xBmsgHBHrFJQc2TL2-15" value="" style="endArrow=none;html=1;rounded=0;entryX=0.083;entryY=0.984;entryDx=0;entryDy=0;entryPerimeter=0;" edge="1" parent="1" source="m86xBmsgHBHrFJQc2TL2-12" target="m86xBmsgHBHrFJQc2TL2-3">
          <mxGeometry width="50" height="50" relative="1" as="geometry">
            <mxPoint x="230" y="360" as="sourcePoint" />
            <mxPoint x="280" y="310" as="targetPoint" />
          </mxGeometry>
        </mxCell>
        <mxCell id="m86xBmsgHBHrFJQc2TL2-16" value="" style="endArrow=none;html=1;rounded=0;entryX=0.885;entryY=1.007;entryDx=0;entryDy=0;entryPerimeter=0;exitX=0;exitY=0;exitDx=0;exitDy=0;" edge="1" parent="1" source="m86xBmsgHBHrFJQc2TL2-13" target="m86xBmsgHBHrFJQc2TL2-3">
          <mxGeometry width="50" height="50" relative="1" as="geometry">
            <mxPoint x="230" y="360" as="sourcePoint" />
            <mxPoint x="280" y="310" as="targetPoint" />
          </mxGeometry>
        </mxCell>
      </root>
    </mxGraphModel>
  </diagram>
</mxfile>
